<svg xmlns="http://www.w3.org/2000/svg" version="1.0" width="1600.000000pt" height="1416.000000pt" viewBox="0 0 1600.000000 1416.000000" preserveAspectRatio="xMidYMid meet">

<g transform="translate(0.000000,1416.000000) scale(0.100000,-0.100000)" stroke="none" fill="pink">
<path d="M10600 14139 c-96 -6 -151 -18 -330 -68 -396 -110 -619 -160 -1004 -225 -520 -89 -1097 -132 -1636 -130 -366 7 -539 21 -1080 87 -712 88 -1057 145 -1363 224 -76 20 -189 41 -251 47 -151 14 -406 -1 -585 -36 -172 -34 -431 -117 -496 -159 -95 -62 -270 -233 -400 -391 -261 -317 -298 -390 -390 -774 -149 -630 -420 -1342 -797 -2095 -92 -184 -176 -334 -275 -492 -75 -120 -373 -544 -481 -684 -82 -106 -346 -427 -459 -557 -102 -117 -472 -493 -568 -577 -78 -68 -138 -156 -223 -324 -99 -194 -151 -351 -213 -637 -27 -126 -33 -172 -33 -285 -1 -159 17 -253 94 -492 111 -346 220 -517 540 -843 276 -281 463 -503 821 -970 764 -999 1008 -1454 1511 -2820 128 -345 184 -512 277 -813 58 -186 152 -338 344 -553 104 -117 279 -283 371 -353 83 -63 132 -82 344 -136 258 -64 305 -70 591 -70 291 0 291 0 676 89 429 98 608 130 1100 195 450 60 616 69 1055 58 179 -4 345 -5 370 -1 25 4 133 12 240 18 173 11 224 10 460 -9 588 -45 1316 -139 1605 -206 499 -116 942 -144 1260 -79 248 50 291 67 479 183 192 119 474 434 569 639 21 44 72 197 113 339 97 334 165 537 309 919 151 405 209 539 375 874 273 550 532 969 928 1496 317 422 550 693 963 1126 191 200 220 240 309 418 151 302 270 689 270 878 0 228 -93 539 -262 878 -113 225 -155 278 -348 438 -254 211 -507 473 -891 927 -202 239 -412 513 -669 875 -252 355 -470 735 -640 1115 -313 700 -420 977 -611 1579 -106 334 -122 374 -201 491 -140 207 -317 396 -531 567 -174 140 -271 187 -496 242 -236 58 -517 84 -741 70z m-850 -780 c0 -4 -13 -2 -29 4 -42 15 -65 3 -56 -31 7 -31 -9 -20 -19 13 -8 28 28 44 72 31 17 -5 32 -13 32 -17z m-260 -4 c6 -8 10 -22 7 -32 -4 -16 -6 -15 -12 5 -4 12 -14 22 -22 22 -8 0 -11 5 -8 10 9 14 21 12 35 -5z m83 -7 c7 -24 -8 -39 -29 -31 -13 5 -25 39 -16 47 13 14 40 4 45 -16z m-149 6 c17 -7 22 -44 6 -44 -5 0 -10 7 -10 15 0 8 -4 15 -10 15 -5 0 -10 -9 -10 -21 0 -11 -4 -17 -10 -14 -14 9 -12 42 3 48 6 3 13 6 14 6 1 1 8 -2 17 -5z m-68 -61 c-4 -4 -12 -1 -18 5 -17 17 -28 15 -28 -4 0 -8 -4 -12 -10 -9 -5 3 -10 18 -10 32 0 25 0 25 27 8 22 -15 25 -15 20 -2 -3 8 -3 18 1 22 4 3 11 -6 15 -20 5 -14 6 -29 3 -32z m354 36 c0 -20 1 -21 25 -5 14 9 25 13 25 8 0 -8 -43 -32 -58 -32 -4 0 -8 11 -8 25 -1 14 2 25 7 25 5 0 9 -10 9 -21z m-556 -11 c-3 -5 0 -15 6 -23 8 -10 9 -15 2 -15 -6 0 -14 5 -17 10 -4 7 -11 8 -18 1 -9 -6 -12 -3 -12 12 0 16 7 22 22 23 13 1 20 -2 17 -8z m-151 -5 c-7 -2 -21 -2 -30 0 -10 3 -4 5 12 5 17 0 24 -2 18 -5z m47 -3 c0 -5 -4 -10 -10 -10 -5 0 -10 5 -10 10 0 6 5 10 10 10 6 0 10 -4 10 -10z m208 -10 c7 -11 10 -20 8 -20 -2 0 -10 -2 -18 -5 -9 -4 -13 3 -13 20 0 30 6 32 23 5z m-378 -7 c0 19 15 23 26 6 5 -8 9 -8 14 1 6 9 10 6 15 -9 9 -30 -2 -39 -22 -18 -15 15 -17 15 -30 -1 -11 -15 -14 -15 -23 -2 -5 8 -10 22 -10 30 1 11 4 10 15 -4 13 -17 15 -18 15 -3z m-46 -9 c10 -27 7 -34 -16 -34 -19 0 -20 2 -8 10 13 9 13 10 0 10 -13 0 -13 2 -1 9 11 7 10 10 -5 14 -17 4 -17 5 2 6 12 0 25 -6 28 -15z m251 6 c-3 -5 -16 -10 -28 -9 -21 0 -21 1 -2 9 28 12 37 12 30 0z m-466 -9 c12 -8 12 -12 2 -25 -15 -18 -49 -21 -71 -6 -13 9 -12 12 4 25 22 17 44 19 65 6z m85 -8 c4 -8 4 -19 1 -23 -8 -13 -48 4 -51 22 -3 20 43 21 50 1z m70 -25 c6 -4 -1 -8 -15 -8 -23 0 -26 3 -21 26 4 24 6 25 15 8 6 -11 15 -22 21 -26z m-574 -12808 c-7 -32 -8 -32 -9 -7 -1 15 -7 27 -13 28 -7 0 -4 4 7 8 11 5 21 8 22 7 1 -1 -2 -17 -7 -36z m-362 5 c-3 -3 -9 2 -12 12 -6 14 -5 15 5 6 7 -7 10 -15 7 -18z m312 -12 c0 -35 0 -36 -20 -18 -19 17 -20 17 -21 -1 0 -18 -1 -18 -8 1 -13 33 -2 49 20 29 18 -16 19 -16 19 4 0 12 2 22 5 22 3 0 5 -16 5 -37z m-414 8 c0 -11 -4 -17 -8 -15 -4 3 -8 12 -8 20 0 8 4 14 8 14 4 0 8 -9 8 -19z m196 -6 c6 -29 2 -35 -24 -35 -13 0 -18 8 -18 30 0 39 35 43 42 5z m50 -33 c8 -9 7 -11 -6 -6 -10 4 -16 17 -15 38 2 27 2 28 6 6 3 -14 10 -31 15 -38z m59 -2 c5 0 9 11 9 25 0 14 5 25 10 25 16 0 11 -47 -6 -54 -23 -9 -34 2 -33 32 l2 27 4 -27 c2 -16 9 -28 14 -28z m-251 30 c0 -5 -5 -10 -11 -10 -5 0 -7 5 -4 10 3 6 8 10 11 10 2 0 4 -4 4 -10z m50 -20 c0 -5 -5 -10 -11 -10 -5 0 -7 5 -4 10 3 6 8 10 11 10 2 0 4 -4 4 -10z"/>

</g>
</svg>